<mxfile host="app.diagrams.net" modified="2023-10-10T13:33:47.497Z" agent="Mozilla/5.0 (Windows NT 10.0; Win64; x64) AppleWebKit/537.36 (KHTML, like Gecko) Chrome/116.0.0.0 Safari/537.36 OPR/102.0.0.0" version="22.0.4" etag="doUh9ONrKKNpt6FdKZqk" type="github">
  <diagram name="PÃ¡gina-1" id="CRk_2A_JNqHulUzDohKg">
    <mxGraphModel>
      <root>
        <mxCell id="0" />
        <mxCell id="1" parent="0" />
      </root>
    </mxGraphModel>
  </diagram>
</mxfile>
